<?xml version="1.0" encoding="UTF-8" standalone="no"?>
<!DOCTYPE svg PUBLIC "-//W3C//DTD SVG 1.1//EN"
 "http://www.w3.org/Graphics/SVG/1.1/DTD/svg11.dtd">
<!-- Generated by graphviz version 2.40.1 (20161225.0304)
 -->
<!-- Title: dependencies Pages: 1 -->
<svg width="700pt" height="290pt"
 viewBox="0.00 0.00 700.00 290.00" xmlns="http://www.w3.org/2000/svg" xmlns:xlink="http://www.w3.org/1999/xlink">
<g id="graph0" class="graph" transform="scale(1 1) rotate(0) translate(4 286)">
<title>dependencies</title>
<polygon fill="#ffffff" stroke="transparent" points="-4,4 -4,-286 696,-286 696,4 -4,4"/>
<text text-anchor="start" x="325.0091" y="-42.4" font-family="sans-serif" font-weight="bold" font-size="14.00" fill="#000000">Legend</text>
<polygon fill="#ffffb3" stroke="transparent" points="112,-10 112,-30 132,-30 132,-10 112,-10"/>
<text text-anchor="start" x="135.629" y="-15.4" font-family="sans-serif" font-size="14.00" fill="#000000"> &#160;Declarations</text>
<polygon fill="#8dd3c7" stroke="transparent" points="225,-10 225,-30 245,-30 245,-10 225,-10"/>
<text text-anchor="start" x="248.7251" y="-15.4" font-family="sans-serif" font-size="14.00" fill="#000000"> &#160;Module</text>
<polygon fill="#80b1d3" stroke="transparent" points="311,-10 311,-30 331,-30 331,-10 311,-10"/>
<text text-anchor="start" x="334.7812" y="-15.4" font-family="sans-serif" font-size="14.00" fill="#000000"> &#160;Bootstrap</text>
<polygon fill="#fdb462" stroke="transparent" points="408,-10 408,-30 428,-30 428,-10 408,-10"/>
<text text-anchor="start" x="431.6732" y="-15.4" font-family="sans-serif" font-size="14.00" fill="#000000"> &#160;Providers</text>
<polygon fill="#fb8072" stroke="transparent" points="504,-10 504,-30 524,-30 524,-10 504,-10"/>
<text text-anchor="start" x="527.7258" y="-15.4" font-family="sans-serif" font-size="14.00" fill="#000000"> &#160;Exports</text>
<g id="clust1" class="cluster">
<title>cluster_AppModule</title>
<polygon fill="none" stroke="#000000" stroke-dasharray="1,5" points="8,-70 8,-274 412,-274 412,-70 8,-70"/>
</g>
<g id="clust2" class="cluster">
<title>cluster_AppModule_declarations</title>
<polygon fill="none" stroke="#000000" points="158,-78 158,-130 280,-130 280,-78 158,-78"/>
</g>
<g id="clust4" class="cluster">
<title>cluster_AppModule_imports</title>
<polygon fill="none" stroke="#000000" points="288,-78 288,-130 404,-130 404,-78 288,-78"/>
</g>
<g id="clust6" class="cluster">
<title>cluster_AppModule_bootstrap</title>
<polygon fill="none" stroke="#000000" points="157,-214 157,-266 281,-266 281,-214 157,-214"/>
</g>
<g id="clust7" class="cluster">
<title>cluster_AppModule_providers</title>
<polygon fill="none" stroke="#000000" points="16,-78 16,-130 150,-130 150,-78 16,-78"/>
</g>
<g id="clust14" class="cluster">
<title>cluster_DesignModule</title>
<polygon fill="none" stroke="#000000" stroke-dasharray="1,5" points="420,-138 420,-206 684,-206 684,-138 420,-138"/>
</g>
<g id="clust16" class="cluster">
<title>cluster_DesignModule_imports</title>
<polygon fill="none" stroke="#000000" points="558,-146 558,-198 676,-198 676,-146 558,-146"/>
</g>
<g id="clust17" class="cluster">
<title>cluster_DesignModule_exports</title>
<polygon fill="none" stroke="#000000" points="428,-146 428,-198 550,-198 550,-146 428,-146"/>
</g>
<!-- AppComponent -->
<g id="node1" class="node">
<title>AppComponent</title>
<polygon fill="#ffffb3" stroke="#000000" points="271.9399,-122 166.0601,-122 166.0601,-86 271.9399,-86 271.9399,-122"/>
<text text-anchor="middle" x="219" y="-99.8" font-family="Times,serif" font-size="14.00" fill="#000000">AppComponent</text>
</g>
<!-- AppModule -->
<g id="node2" class="node">
<title>AppModule</title>
<polygon fill="#8dd3c7" stroke="#000000" points="260.6571,-190 257.6571,-194 236.6571,-194 233.6571,-190 177.3429,-190 177.3429,-154 260.6571,-154 260.6571,-190"/>
<text text-anchor="middle" x="219" y="-167.8" font-family="Times,serif" font-size="14.00" fill="#000000">AppModule</text>
</g>
<!-- AppComponent&#45;&gt;AppModule -->
<g id="edge1" class="edge">
<title>AppComponent&#45;&gt;AppModule</title>
<path fill="none" stroke="#000000" d="M219,-122.2228C219,-122.2228 219,-143.7269 219,-143.7269"/>
<polygon fill="#000000" stroke="#000000" points="215.5001,-143.7269 219,-153.7269 222.5001,-143.727 215.5001,-143.7269"/>
</g>
<!-- AppComponent  -->
<g id="node4" class="node">
<title>AppComponent </title>
<polygon fill="#80b1d3" stroke="#000000" points="273.439,-258 164.561,-258 164.561,-222 273.439,-222 273.439,-258"/>
<text text-anchor="middle" x="219" y="-235.8" font-family="Times,serif" font-size="14.00" fill="#000000">AppComponent </text>
</g>
<!-- AppModule&#45;&gt;AppComponent  -->
<g id="edge3" class="edge">
<title>AppModule&#45;&gt;AppComponent </title>
<path fill="none" stroke="#000000" stroke-dasharray="1,5" d="M219,-190.2228C219,-190.2228 219,-211.7269 219,-211.7269"/>
<polygon fill="#000000" stroke="#000000" points="215.5001,-211.7269 219,-221.7269 222.5001,-211.727 215.5001,-211.7269"/>
</g>
<!-- DesignModule -->
<g id="node3" class="node">
<title>DesignModule</title>
<polygon fill="#8dd3c7" stroke="#000000" points="395.7064,-122 392.7064,-126 371.7064,-126 368.7064,-122 296.2936,-122 296.2936,-86 395.7064,-86 395.7064,-122"/>
<text text-anchor="middle" x="346" y="-99.8" font-family="Times,serif" font-size="14.00" fill="#000000">DesignModule</text>
</g>
<!-- DesignModule&#45;&gt;AppModule -->
<g id="edge2" class="edge">
<title>DesignModule&#45;&gt;AppModule</title>
<path fill="none" stroke="#000000" d="M329.4656,-122.2921C329.4656,-144.2057 329.4656,-178 329.4656,-178 329.4656,-178 270.7623,-178 270.7623,-178"/>
<polygon fill="#000000" stroke="#000000" points="270.7624,-174.5001 260.7623,-178 270.7623,-181.5001 270.7624,-174.5001"/>
</g>
<!-- FactoryModule  -->
<g id="node7" class="node">
<title>FactoryModule </title>
<polygon fill="#fb8072" stroke="#000000" points="541.813,-190 436.187,-190 436.187,-154 541.813,-154 541.813,-190"/>
<text text-anchor="middle" x="489" y="-167.8" font-family="Times,serif" font-size="14.00" fill="#000000">FactoryModule </text>
</g>
<!-- DesignModule&#45;&gt;FactoryModule  -->
<g id="edge6" class="edge">
<title>DesignModule&#45;&gt;FactoryModule </title>
<path fill="none" stroke="#000000" stroke-dasharray="5,2" d="M362.5344,-122.2667C362.5344,-140.5552 362.5344,-166 362.5344,-166 362.5344,-166 426.0999,-166 426.0999,-166"/>
<polygon fill="#000000" stroke="#000000" points="426.1,-169.5001 436.0999,-166 426.0999,-162.5001 426.1,-169.5001"/>
</g>
<!-- UserFactory -->
<g id="node5" class="node">
<title>UserFactory</title>
<ellipse fill="#fdb462" stroke="#000000" cx="83" cy="-104" rx="58.5251" ry="18"/>
<text text-anchor="middle" x="83" y="-99.8" font-family="Times,serif" font-size="14.00" fill="#000000">UserFactory</text>
</g>
<!-- UserFactory&#45;&gt;AppModule -->
<g id="edge4" class="edge">
<title>UserFactory&#45;&gt;AppModule</title>
<path fill="none" stroke="#000000" d="M83,-122.2228C83,-142.3652 83,-172 83,-172 83,-172 167.0858,-172 167.0858,-172"/>
<polygon fill="#000000" stroke="#000000" points="167.0858,-175.5001 177.0858,-172 167.0858,-168.5001 167.0858,-175.5001"/>
</g>
<!-- FactoryModule -->
<g id="node6" class="node">
<title>FactoryModule</title>
<polygon fill="#8dd3c7" stroke="#000000" points="668.3133,-190 665.3133,-194 644.3133,-194 641.3133,-190 565.6867,-190 565.6867,-154 668.3133,-154 668.3133,-190"/>
<text text-anchor="middle" x="617" y="-167.8" font-family="Times,serif" font-size="14.00" fill="#000000">FactoryModule</text>
</g>
<!-- FactoryModule&#45;&gt;DesignModule -->
<g id="edge5" class="edge">
<title>FactoryModule&#45;&gt;DesignModule</title>
<path fill="none" stroke="#000000" d="M617,-153.7772C617,-133.6348 617,-104 617,-104 617,-104 405.7056,-104 405.7056,-104"/>
<polygon fill="#000000" stroke="#000000" points="405.7056,-100.5001 395.7056,-104 405.7055,-107.5001 405.7056,-100.5001"/>
</g>
</g>
</svg>
